<svg width="86" height="285" viewBox="0 0 86 285" fill="none" xmlns="http://www.w3.org/2000/svg">
<g opacity="0.5">
<rect x="0.755859" y="148.177" width="2.01956" height="2.02287" fill="black"/>
<rect x="14.2002" y="148.177" width="2.01956" height="2.02287" fill="black"/>
<rect x="27.6523" y="148.177" width="2.01956" height="2.02287" fill="black"/>
<rect x="41.0967" y="148.177" width="2.01956" height="2.02287" fill="black"/>
<rect x="54.542" y="148.177" width="2.01956" height="2.02287" fill="black"/>
<rect x="67.9854" y="148.177" width="2.01956" height="2.02287" fill="black"/>
<rect x="81.4365" y="148.177" width="2.01956" height="2.02287" fill="black"/>
<rect x="0.755859" y="161.643" width="2.01956" height="2.02287" fill="black"/>
<rect x="14.2002" y="161.643" width="2.01956" height="2.02287" fill="black"/>
<rect x="27.6523" y="161.643" width="2.01956" height="2.02287" fill="black"/>
<rect x="41.0967" y="161.643" width="2.01956" height="2.02287" fill="black"/>
<rect x="54.542" y="161.643" width="2.01956" height="2.02287" fill="black"/>
<rect x="67.9854" y="161.643" width="2.01956" height="2.02287" fill="black"/>
<rect x="81.4365" y="161.643" width="2.01956" height="2.02287" fill="black"/>
<rect x="0.755859" y="175.117" width="2.01956" height="2.02287" fill="black"/>
<rect x="14.2002" y="175.117" width="2.01956" height="2.02287" fill="black"/>
<rect x="27.6523" y="175.117" width="2.01956" height="2.02287" fill="black"/>
<rect x="41.0967" y="175.117" width="2.01956" height="2.02287" fill="black"/>
<rect x="54.542" y="175.117" width="2.01956" height="2.02287" fill="black"/>
<rect x="67.9854" y="175.117" width="2.01956" height="2.02287" fill="black"/>
<rect x="81.4365" y="175.117" width="2.01956" height="2.02287" fill="black"/>
<rect x="0.755859" y="188.583" width="2.01956" height="2.02287" fill="black"/>
<rect x="14.2002" y="188.583" width="2.01956" height="2.02287" fill="black"/>
<rect x="27.6523" y="188.583" width="2.01956" height="2.02287" fill="black"/>
<rect x="41.0967" y="188.583" width="2.01956" height="2.02287" fill="black"/>
<rect x="54.542" y="188.583" width="2.01956" height="2.02287" fill="black"/>
<rect x="67.9854" y="188.583" width="2.01956" height="2.02287" fill="black"/>
<rect x="81.4365" y="188.583" width="2.01956" height="2.02287" fill="black"/>
<rect x="0.755859" y="202.051" width="2.01956" height="2.02287" fill="black"/>
<rect x="14.2002" y="202.051" width="2.01956" height="2.02287" fill="black"/>
<rect x="27.6523" y="202.051" width="2.01956" height="2.02287" fill="black"/>
<rect x="41.0967" y="202.051" width="2.01956" height="2.02287" fill="black"/>
<rect x="54.542" y="202.051" width="2.01956" height="2.02287" fill="black"/>
<rect x="67.9854" y="202.051" width="2.01956" height="2.02287" fill="black"/>
<rect x="81.4365" y="202.051" width="2.01956" height="2.02287" fill="black"/>
<rect x="0.755859" y="215.518" width="2.01956" height="2.02287" fill="black"/>
<rect x="14.2002" y="215.518" width="2.01956" height="2.02287" fill="black"/>
<rect x="27.6523" y="215.518" width="2.01956" height="2.02287" fill="black"/>
<rect x="41.0967" y="215.518" width="2.01956" height="2.02287" fill="black"/>
<rect x="54.542" y="215.518" width="2.01956" height="2.02287" fill="black"/>
<rect x="67.9854" y="215.518" width="2.01956" height="2.02287" fill="black"/>
<rect x="81.4365" y="215.518" width="2.01956" height="2.02287" fill="black"/>
<rect x="0.755859" y="228.991" width="2.01956" height="2.02287" fill="black"/>
<rect x="14.2002" y="228.991" width="2.01956" height="2.02287" fill="black"/>
<rect x="27.6523" y="228.991" width="2.01956" height="2.02287" fill="black"/>
<rect x="41.0967" y="228.991" width="2.01956" height="2.02287" fill="black"/>
<rect x="54.542" y="228.991" width="2.01956" height="2.02287" fill="black"/>
<rect x="67.9854" y="228.991" width="2.01956" height="2.02287" fill="black"/>
<rect x="81.4365" y="228.991" width="2.01956" height="2.02287" fill="black"/>
<rect x="0.755859" y="242.457" width="2.01956" height="2.02287" fill="black"/>
<rect x="14.2002" y="242.458" width="2.01956" height="2.02287" fill="black"/>
<rect x="27.6523" y="242.458" width="2.01956" height="2.02287" fill="black"/>
<rect x="41.0967" y="242.458" width="2.01956" height="2.02287" fill="black"/>
<rect x="54.542" y="242.458" width="2.01956" height="2.02287" fill="black"/>
<rect x="67.9854" y="242.458" width="2.01956" height="2.02287" fill="black"/>
<rect x="81.4365" y="242.458" width="2.01956" height="2.02287" fill="black"/>
<rect x="0.755859" y="255.925" width="2.01956" height="2.02287" fill="black"/>
<rect x="14.2002" y="255.925" width="2.01956" height="2.02287" fill="black"/>
<rect x="27.6523" y="255.925" width="2.01956" height="2.02287" fill="black"/>
<rect x="41.0967" y="255.925" width="2.01956" height="2.02287" fill="black"/>
<rect x="54.542" y="255.925" width="2.01956" height="2.02287" fill="black"/>
<rect x="67.9854" y="255.925" width="2.01956" height="2.02287" fill="black"/>
<rect x="81.4365" y="255.925" width="2.01956" height="2.02287" fill="black"/>
<rect x="0.755859" y="269.391" width="2.01956" height="2.02287" fill="black"/>
<rect x="14.2002" y="269.391" width="2.01956" height="2.02287" fill="black"/>
<rect x="27.6523" y="269.391" width="2.01956" height="2.02287" fill="black"/>
<rect x="41.0967" y="269.391" width="2.01956" height="2.02287" fill="black"/>
<rect x="54.542" y="269.391" width="2.01956" height="2.02287" fill="black"/>
<rect x="67.9854" y="269.391" width="2.01956" height="2.02287" fill="black"/>
<rect x="81.4365" y="269.391" width="2.01956" height="2.02287" fill="black"/>
<rect x="0.755859" y="282.863" width="2.01956" height="2.02287" fill="black"/>
<rect x="14.2002" y="282.864" width="2.01956" height="2.02287" fill="black"/>
<rect x="27.6523" y="282.864" width="2.01956" height="2.02287" fill="black"/>
<rect x="41.0967" y="282.864" width="2.01956" height="2.02287" fill="black"/>
<rect x="54.542" y="282.864" width="2.01956" height="2.02287" fill="black"/>
<rect x="67.9854" y="282.864" width="2.01956" height="2.02287" fill="black"/>
<rect x="81.4365" y="282.864" width="2.01956" height="2.02287" fill="black"/>
</g>
<g opacity="0.5">
<rect x="0.755859" y="0.661743" width="2.01956" height="2.02287" fill="black"/>
<rect x="14.2002" y="0.661621" width="2.01956" height="2.02287" fill="black"/>
<rect x="27.6523" y="0.661621" width="2.01956" height="2.02287" fill="black"/>
<rect x="41.0947" y="0.661621" width="2.01956" height="2.02287" fill="black"/>
<rect x="54.54" y="0.661621" width="2.01956" height="2.02287" fill="black"/>
<rect x="67.9854" y="0.661621" width="2.01956" height="2.02287" fill="black"/>
<rect x="81.4365" y="0.661621" width="2.01956" height="2.02287" fill="black"/>
<rect x="0.755859" y="14.1273" width="2.01956" height="2.02287" fill="black"/>
<rect x="14.2002" y="14.1273" width="2.01956" height="2.02287" fill="black"/>
<rect x="27.6523" y="14.1273" width="2.01956" height="2.02287" fill="black"/>
<rect x="41.0947" y="14.1273" width="2.01956" height="2.02287" fill="black"/>
<rect x="54.54" y="14.1273" width="2.01956" height="2.02287" fill="black"/>
<rect x="67.9854" y="14.1273" width="2.01956" height="2.02287" fill="black"/>
<rect x="81.4365" y="14.1273" width="2.01956" height="2.02287" fill="black"/>
<rect x="0.755859" y="27.6019" width="2.01956" height="2.02287" fill="black"/>
<rect x="14.2002" y="27.6028" width="2.01956" height="2.02287" fill="black"/>
<rect x="27.6523" y="27.6019" width="2.01956" height="2.02287" fill="black"/>
<rect x="41.0957" y="27.6028" width="2.01956" height="2.02287" fill="black"/>
<rect x="54.54" y="27.6028" width="2.01956" height="2.02287" fill="black"/>
<rect x="67.9854" y="27.6028" width="2.01956" height="2.02287" fill="black"/>
<rect x="81.4365" y="27.6028" width="2.01956" height="2.02287" fill="black"/>
<rect x="0.755859" y="41.0676" width="2.01956" height="2.02287" fill="black"/>
<rect x="14.2002" y="41.0676" width="2.01956" height="2.02287" fill="black"/>
<rect x="27.6523" y="41.0676" width="2.01956" height="2.02287" fill="black"/>
<rect x="41.0947" y="41.0676" width="2.01956" height="2.02287" fill="black"/>
<rect x="54.54" y="41.0676" width="2.01956" height="2.02287" fill="black"/>
<rect x="67.9854" y="41.0676" width="2.01956" height="2.02287" fill="black"/>
<rect x="81.4365" y="41.0676" width="2.01956" height="2.02287" fill="black"/>
<rect x="0.755859" y="54.5362" width="2.01956" height="2.02287" fill="black"/>
<rect x="14.2002" y="54.5362" width="2.01956" height="2.02287" fill="black"/>
<rect x="27.6523" y="54.5362" width="2.01956" height="2.02287" fill="black"/>
<rect x="41.0947" y="54.5362" width="2.01956" height="2.02287" fill="black"/>
<rect x="54.54" y="54.5362" width="2.01956" height="2.02287" fill="black"/>
<rect x="67.9854" y="54.5362" width="2.01956" height="2.02287" fill="black"/>
<rect x="81.4365" y="54.5362" width="2.01956" height="2.02287" fill="black"/>
<rect x="0.755859" y="68.0029" width="2.01956" height="2.02287" fill="black"/>
<rect x="14.2002" y="68.0029" width="2.01956" height="2.02287" fill="black"/>
<rect x="27.6523" y="68.0029" width="2.01956" height="2.02287" fill="black"/>
<rect x="41.0947" y="68.0029" width="2.01956" height="2.02287" fill="black"/>
<rect x="54.54" y="68.0029" width="2.01956" height="2.02287" fill="black"/>
<rect x="67.9854" y="68.0029" width="2.01956" height="2.02287" fill="black"/>
<rect x="81.4365" y="68.0029" width="2.01956" height="2.02287" fill="black"/>
<rect x="0.755859" y="81.4755" width="2.01956" height="2.02287" fill="black"/>
<rect x="14.2002" y="81.4755" width="2.01956" height="2.02287" fill="black"/>
<rect x="27.6523" y="81.4755" width="2.01956" height="2.02287" fill="black"/>
<rect x="41.0947" y="81.4755" width="2.01956" height="2.02287" fill="black"/>
<rect x="54.54" y="81.4755" width="2.01956" height="2.02287" fill="black"/>
<rect x="67.9854" y="81.4755" width="2.01956" height="2.02287" fill="black"/>
<rect x="81.4365" y="81.4755" width="2.01956" height="2.02287" fill="black"/>
<rect x="0.755859" y="94.9422" width="2.01956" height="2.02287" fill="black"/>
<rect x="14.2002" y="94.9441" width="2.01956" height="2.02287" fill="black"/>
<rect x="27.6523" y="94.9441" width="2.01956" height="2.02287" fill="black"/>
<rect x="41.0947" y="94.9441" width="2.01956" height="2.02287" fill="black"/>
<rect x="54.54" y="94.9441" width="2.01956" height="2.02287" fill="black"/>
<rect x="67.9854" y="94.9441" width="2.01956" height="2.02287" fill="black"/>
<rect x="81.4365" y="94.9441" width="2.01956" height="2.02287" fill="black"/>
<rect x="0.755859" y="108.41" width="2.01956" height="2.02287" fill="black"/>
<rect x="14.2002" y="108.41" width="2.01956" height="2.02287" fill="black"/>
<rect x="27.6523" y="108.41" width="2.01956" height="2.02287" fill="black"/>
<rect x="41.0947" y="108.41" width="2.01956" height="2.02287" fill="black"/>
<rect x="54.54" y="108.41" width="2.01956" height="2.02287" fill="black"/>
<rect x="67.9854" y="108.41" width="2.01956" height="2.02287" fill="black"/>
<rect x="81.4365" y="108.41" width="2.01956" height="2.02287" fill="black"/>
<rect x="0.755859" y="121.877" width="2.01956" height="2.02287" fill="black"/>
<rect x="14.2002" y="121.877" width="2.01956" height="2.02287" fill="black"/>
<rect x="27.6523" y="121.877" width="2.01956" height="2.02287" fill="black"/>
<rect x="41.0947" y="121.877" width="2.01956" height="2.02287" fill="black"/>
<rect x="54.54" y="121.877" width="2.01956" height="2.02287" fill="black"/>
<rect x="67.9854" y="121.877" width="2.01956" height="2.02287" fill="black"/>
<rect x="81.4365" y="121.877" width="2.01956" height="2.02287" fill="black"/>
<rect x="0.755859" y="135.348" width="2.01956" height="2.02287" fill="black"/>
<rect x="14.2002" y="135.349" width="2.01956" height="2.02287" fill="black"/>
<rect x="27.6523" y="135.349" width="2.01956" height="2.02287" fill="black"/>
<rect x="41.0947" y="135.349" width="2.01956" height="2.02287" fill="black"/>
<rect x="54.54" y="135.349" width="2.01956" height="2.02287" fill="black"/>
<rect x="67.9854" y="135.349" width="2.01956" height="2.02287" fill="black"/>
<rect x="81.4365" y="135.349" width="2.01956" height="2.02287" fill="black"/>
</g>
</svg>
