<svg width="202" height="29" viewBox="0 0 202 29" fill="none" xmlns="http://www.w3.org/2000/svg">
<path fill-rule="evenodd" clip-rule="evenodd" d="M138.503 13.9751H134.598V27.9503H128.775V16.2616V13.9751H126.035V9.04274H128.775V5.82298C128.775 3.5623 129.871 0 134.598 0H138.914V4.79539H135.831C135.352 4.79539 134.598 5.06942 134.598 6.16551V9.04274H138.983L138.503 13.9751Z" fill="#535353"/>
<path fill-rule="evenodd" clip-rule="evenodd" d="M13.9088 0C15.7682 0.0664132 17.694 0.0664132 19.5534 0.132818C21.2136 0.199222 22.741 0.464855 24.202 1.32815C26.0614 2.45708 27.1903 4.11727 27.5888 6.2423C27.788 7.50404 27.8544 8.83218 27.9208 10.0939C27.9872 12.883 27.9208 15.6722 27.9208 18.4613C27.9208 19.9222 27.8544 21.3832 27.3895 22.7777C26.4598 25.5005 24.534 27.1606 21.7449 27.6919C20.4831 27.9575 19.155 27.9575 17.8932 28.0239C15.1041 28.0903 12.3814 28.0239 9.59223 28.0239C8.13127 28.0239 6.6703 27.9575 5.27574 27.4927C2.55301 26.563 0.892817 24.6372 0.361552 21.848C0.0959252 20.5863 0.0959252 19.2582 0.0295163 17.9964C-0.0368954 15.2073 0.0295163 12.4182 0.0295163 9.62908C0.0295163 8.16812 0.0959251 6.70716 0.560778 5.31259C1.49049 2.58989 3.41631 0.929711 6.20544 0.398449C7.4672 0.132826 8.79535 0.132826 10.0571 0.0664132C11.3188 0 12.5806 0 13.9088 0ZM25.3965 13.7475C25.3301 13.7475 25.3965 13.7475 25.3965 13.7475C25.3301 12.6186 25.3301 11.5561 25.3301 10.4271C25.3301 9.36462 25.2637 8.30209 25.1309 7.23957C24.8652 4.8489 23.4707 3.25512 21.1464 2.79027C19.9511 2.52465 18.6229 2.52465 17.4276 2.52465C15.0369 2.45824 12.7126 2.45824 10.3219 2.52465C9.1266 2.52465 7.93126 2.59104 6.80232 2.79027C4.81008 3.12231 3.41552 4.25124 2.81785 6.24346C2.61863 6.90753 2.55223 7.57161 2.48581 8.23568C2.4194 10.7592 2.4194 13.2826 2.4194 15.8061C2.4194 17.3999 2.48581 19.0601 2.61863 20.6539C2.81785 23.0445 4.27882 24.7047 6.66951 25.1032C7.86484 25.3024 9.1266 25.3688 10.3883 25.3688C12.7126 25.4352 15.0369 25.3688 17.4276 25.3688C18.4901 25.3688 19.5526 25.3024 20.6152 25.1696C21.6113 25.1032 22.541 24.7711 23.3379 24.1071C24.666 23.0445 25.1309 21.65 25.1973 20.0562C25.3301 18.064 25.3301 15.9389 25.3965 13.7475Z" fill="#535353"/>
<path fill-rule="evenodd" clip-rule="evenodd" d="M21.0794 14.0113C21.0794 17.9957 17.8919 21.1833 13.9074 21.1833C9.92293 21.1833 6.73535 17.9957 6.73535 13.9449C6.73535 10.0269 9.98933 6.83936 13.9738 6.83936C17.8919 6.83936 21.0794 10.0269 21.0794 14.0113ZM13.9076 18.6613C16.4311 18.6613 18.5561 16.5362 18.5561 14.0128C18.5561 11.4893 16.4311 9.36428 13.9076 9.36428C11.3177 9.36428 9.25901 11.4893 9.25901 14.0128C9.1926 16.5362 11.3177 18.6613 13.9076 18.6613Z" fill="#535353"/>
<path d="M23.0069 6.50697C23.0069 7.43668 22.2764 8.23357 21.3467 8.23357C20.417 8.23357 19.6201 7.43668 19.6865 6.50697C19.6865 5.57726 20.417 4.84677 21.3467 4.84677C22.2764 4.84677 23.0069 5.57725 23.0069 6.50697Z" fill="#535353"/>
<path fill-rule="evenodd" clip-rule="evenodd" d="M90.968 16.3484V26.6696H84.9409V17.0264C84.9409 14.6156 84.1122 12.9582 81.9274 12.9582C80.27 12.9582 79.2906 14.0882 78.8386 15.143C78.6879 15.5196 78.6126 16.047 78.6126 16.5744V26.6696H72.5856C72.5856 26.6696 72.6609 10.3214 72.5856 8.66396H78.6126V11.2254C78.6126 11.2254 78.6126 11.3008 78.5372 11.3008H78.6126V11.2254C79.4413 10.02 80.7974 8.21194 84.0369 8.21194C87.9545 8.21194 90.968 10.8487 90.968 16.3484ZM66.4078 0C64.3737 0 63.0176 1.35607 63.0176 3.08883C63.0176 4.82158 64.2983 6.17767 66.3324 6.17767H66.4078C68.5172 6.17767 69.798 4.82159 69.798 3.08883C69.7226 1.35607 68.4419 0 66.4078 0ZM63.3189 26.6696H69.2706V8.66397H63.3189V26.6696Z" fill="#535353"/>
<path fill-rule="evenodd" clip-rule="evenodd" d="M202 5.01133C200.948 5.47169 199.896 5.80052 198.712 5.93205C199.896 5.20863 200.816 4.09063 201.211 2.77533C200.093 3.43298 198.843 3.89333 197.594 4.15639C196.542 3.03838 195.029 2.31497 193.385 2.31497C190.228 2.31497 187.663 4.8798 187.663 8.03652C187.663 8.49689 187.729 8.95723 187.795 9.35183C182.994 9.08877 178.785 6.85275 175.957 3.36722C175.431 4.22216 175.168 5.20863 175.168 6.26087C175.168 8.23383 176.154 10.0095 177.733 11.0617C176.812 11.0617 175.891 10.7987 175.102 10.3383V10.4041C175.102 13.1662 177.075 15.5337 179.706 16.0598C179.245 16.1914 178.719 16.2571 178.193 16.2571C177.798 16.2571 177.47 16.1914 177.141 16.1256C177.864 18.4274 179.969 20.0715 182.534 20.1373C180.561 21.6499 178.127 22.5706 175.431 22.5706C174.971 22.5706 174.51 22.5706 174.05 22.5048C176.615 24.1489 179.574 25.0697 182.862 25.0697C193.451 25.0697 199.172 16.3229 199.172 8.75994C199.172 8.49689 199.172 8.23383 199.172 8.03652C200.29 7.18159 201.277 6.12934 202 5.01133Z" fill="#535353"/>
</svg>
