<svg width="116" height="16" viewBox="0 0 116 16" fill="none" xmlns="http://www.w3.org/2000/svg">
<path fill-rule="evenodd" clip-rule="evenodd" d="M79.1911 7.97058H76.964V15.9412H73.6429V9.27463V7.97058H72.0801V5.15744H73.6429V3.32108C73.6429 2.03172 74.2681 0 76.964 0H79.4255V2.735H77.6673C77.3938 2.735 76.964 2.89129 76.964 3.51643V5.15744H79.4646L79.1911 7.97058Z" fill="#535353"/>
<path fill-rule="evenodd" clip-rule="evenodd" d="M8.12998 0C9.19048 0.0378781 10.2889 0.0378781 11.3494 0.0757512C12.2962 0.113624 13.1674 0.265125 14.0006 0.757496C15.0611 1.40137 15.705 2.34824 15.9322 3.56023C16.0459 4.27985 16.0837 5.03735 16.1216 5.75698C16.1595 7.34771 16.1216 8.93846 16.1216 10.5292C16.1216 11.3624 16.0837 12.1957 15.8186 12.9911C15.2884 14.5439 14.19 15.4908 12.5992 15.7938C11.8796 15.9453 11.1221 15.9453 10.4025 15.9832C8.81173 16.021 7.25885 15.9832 5.6681 15.9832C4.83485 15.9832 4.0016 15.9453 3.20623 15.6802C1.65335 15.1499 0.706474 14.0515 0.403473 12.4608C0.251976 11.7412 0.251976 10.9837 0.2141 10.2641C0.176223 8.67333 0.2141 7.08259 0.2141 5.49185C0.2141 4.65861 0.251976 3.82536 0.5171 3.02998C1.04735 1.47711 2.14573 0.530251 3.73647 0.227251C4.4561 0.0757562 5.2136 0.0757562 5.93323 0.0378781C6.65285 0 7.37247 0 8.12998 0ZM14.6819 7.84075C14.644 7.84075 14.6819 7.84075 14.6819 7.84075C14.644 7.19688 14.644 6.59088 14.644 5.947C14.644 5.34101 14.6062 4.73501 14.5304 4.12902C14.3789 2.76552 13.5835 1.85652 12.2579 1.5914C11.5762 1.43991 10.8186 1.43991 10.1369 1.43991C8.7734 1.40203 7.44778 1.40203 6.08428 1.43991C5.40253 1.43991 4.72078 1.47777 4.0769 1.5914C2.94065 1.78078 2.14527 2.42465 1.8044 3.56089C1.69078 3.93964 1.6529 4.31839 1.61502 4.69714C1.57715 6.13638 1.57715 7.57562 1.57715 9.01486C1.57715 9.92386 1.61502 10.8707 1.69078 11.7797C1.8044 13.1432 2.63765 14.0901 4.00115 14.3173C4.6829 14.431 5.40253 14.4688 6.12215 14.4688C7.44778 14.5067 8.7734 14.4688 10.1369 14.4688C10.7429 14.4688 11.3489 14.431 11.9549 14.3552C12.523 14.3173 13.0533 14.128 13.5078 13.7492C14.2653 13.1432 14.5304 12.3478 14.5683 11.4389C14.644 10.3026 14.644 9.09061 14.6819 7.84075Z" fill="#535353"/>
<path fill-rule="evenodd" clip-rule="evenodd" d="M12.2201 7.99121C12.2201 10.2637 10.4021 12.0817 8.12957 12.0817C5.85707 12.0817 4.03906 10.2637 4.03906 7.95335C4.03906 5.71873 5.89494 3.90076 8.16744 3.90076C10.4021 3.90076 12.2201 5.71873 12.2201 7.99121ZM8.12966 10.6433C9.56891 10.6433 10.7809 9.43128 10.7809 7.99205C10.7809 6.55281 9.56891 5.34082 8.12966 5.34082C6.65253 5.34082 5.4784 6.55281 5.4784 7.99205C5.44053 9.43128 6.65253 10.6433 8.12966 10.6433Z" fill="#535353"/>
<path d="M13.3188 3.71116C13.3188 4.24141 12.9022 4.69591 12.3719 4.69591C11.8417 4.69591 11.3872 4.24141 11.4251 3.71116C11.4251 3.18091 11.8417 2.76428 12.3719 2.76428C12.9022 2.76428 13.3188 3.18091 13.3188 3.71116Z" fill="#535353"/>
<path fill-rule="evenodd" clip-rule="evenodd" d="M52.0799 9.32412V15.2107H48.6425V9.71083C48.6425 8.33586 48.1698 7.39057 46.9237 7.39057C45.9785 7.39057 45.4199 8.03509 45.1621 8.63664C45.0761 8.85147 45.0332 9.15225 45.0332 9.45302V15.2107H41.5957C41.5957 15.2107 41.6387 5.88669 41.5957 4.9414H45.0332V6.40231C45.0332 6.40231 45.0332 6.44527 44.9902 6.44527H45.0332V6.40231C45.5058 5.71482 46.2792 4.68359 48.1269 4.68359C50.3612 4.68359 52.0799 6.18747 52.0799 9.32412ZM38.0722 0C36.9121 0 36.1387 0.773422 36.1387 1.76168C36.1387 2.74994 36.8691 3.52337 38.0293 3.52337H38.0722C39.2753 3.52337 40.0058 2.74995 40.0058 1.76168C39.9628 0.773422 39.2324 0 38.0722 0ZM36.3105 15.2107H39.705V4.94141H36.3105V15.2107Z" fill="#535353"/>
<path fill-rule="evenodd" clip-rule="evenodd" d="M115.406 2.85816C114.806 3.12072 114.206 3.30826 113.531 3.38328C114.206 2.97068 114.731 2.33304 114.956 1.58287C114.318 1.95796 113.606 2.22051 112.893 2.37055C112.293 1.7329 111.43 1.32031 110.492 1.32031C108.692 1.32031 107.229 2.78314 107.229 4.58354C107.229 4.84611 107.267 5.10866 107.304 5.33372C104.566 5.18368 102.165 3.90839 100.553 1.92045C100.253 2.40806 100.102 2.97068 100.102 3.57082C100.102 4.69607 100.665 5.7088 101.565 6.30893C101.04 6.30893 100.515 6.1589 100.065 5.89634V5.93384C100.065 7.5092 101.19 8.8595 102.691 9.15956C102.428 9.23458 102.128 9.27209 101.828 9.27209C101.603 9.27209 101.415 9.23458 101.228 9.19708C101.64 10.5099 102.841 11.4476 104.303 11.4851C103.178 12.3478 101.79 12.8729 100.253 12.8729C99.99 12.8729 99.7274 12.8729 99.4648 12.8354C100.928 13.7731 102.616 14.2982 104.491 14.2982C110.53 14.2982 113.793 9.3096 113.793 4.99614C113.793 4.84611 113.793 4.69607 113.793 4.58354C114.431 4.09594 114.993 3.4958 115.406 2.85816Z" fill="white"/>
</svg>
